#pragma once

#include "melody.h"

int melody1[] =
{
  NOTE_C3, NOTE_E3, NOTE_G3, NOTE_E3,
  NOTE_C3, NOTE_E3, NOTE_G3, NOTE_G3, NOTE_E3,
  NOTE_A2, NOTE_C3, NOTE_E3, NOTE_C3,
  NOTE_A2, NOTE_C3, NOTE_E3, NOTE_E3, NOTE_C3,
  NOTE_G2, NOTE_B2, NOTE_D3, NOTE_D3, NOTE_B2,
  NOTE_G2, NOTE_B2, NOTE_D3, NOTE_D3, NOTE_B2,
  NOTE_G2, NOTE_G2, NOTE_G2, REST, NOTE_G2, REST, NOTE_G2,
  REST, NOTE_G2, REST, NOTE_G2, NOTE_G2, NOTE_G2,

  //    NOTE_C4, NOTE_E4, NOTE_G4, NOTE_E4,
  //    NOTE_C4, NOTE_E4, NOTE_G4, NOTE_G4, NOTE_E4,
  //    NOTE_A3, NOTE_C4, NOTE_E4, NOTE_C4,
  //    NOTE_A3, NOTE_C4, NOTE_E4, NOTE_E4, NOTE_C4,
  //    NOTE_G3, NOTE_B3, NOTE_D4, NOTE_D4, NOTE_B3,
  //    NOTE_G3, NOTE_B3, NOTE_D4, NOTE_D4, NOTE_B3,
  //    NOTE_G3, NOTE_G3, NOTE_G3, REST, NOTE_G3, REST, NOTE_G3,
  //    REST, NOTE_G3, REST, NOTE_G3, NOTE_G3, NOTE_G3
};

// Массив длительности нот в мелодии: 4 = четвертная нота,
// 8 = восьмая нота, и так далее...

int noteDurations1[] =
{
  4, 4, 4, 4,
  4, 8, 4, 8, 4,
  4, 4, 4, 4,
  4, 8, 4, 8, 4,
  4, 8, 4, 8, 4,
  4, 8, 4, 8, 4,
  4, 8, 8, 8, 8, 8, 8,
  8, 8, 8, 8, 4, 4,

  //    4, 4, 4, 4,
  //    4, 8, 4, 8, 4,
  //    4, 4, 4, 4,
  //    4, 8, 4, 8, 4,
  //    4, 8, 4, 8, 4,
  //    4, 8, 4, 8, 4,
  //    4, 8, 8, 8, 8, 8, 8,
  //    8, 8, 8, 8, 4, 4
};

int melody2[] =
{
  NOTE_DS5, NOTE_E5, NOTE_FS5, REST, NOTE_B5, NOTE_E5, NOTE_DS5, NOTE_E5, NOTE_FS5, NOTE_B5, NOTE_DS6, NOTE_E6, NOTE_DS6, NOTE_AS5, NOTE_B5, REST,
  NOTE_FS5, REST, NOTE_DS5, NOTE_E5, NOTE_FS5, REST, NOTE_B5, NOTE_CS6, NOTE_AS5, NOTE_B5, NOTE_CS6, NOTE_E6, NOTE_DS6, NOTE_E6, NOTE_CS6,
  NOTE_FS4, NOTE_GS4, NOTE_D4, NOTE_DS4, NOTE_FS2, NOTE_CS4, NOTE_D4, NOTE_CS4, NOTE_B3, NOTE_B3, NOTE_CS4,
  NOTE_D4, NOTE_D4, NOTE_CS4, NOTE_B3, NOTE_CS4, NOTE_DS4, NOTE_FS4, NOTE_GS4, NOTE_DS4, NOTE_FS4, NOTE_CS4, NOTE_DS4, NOTE_B3, NOTE_CS4, NOTE_B3,
  NOTE_DS4, NOTE_FS4, NOTE_GS4, NOTE_DS4, NOTE_FS4, NOTE_CS4, NOTE_DS4, NOTE_B3, NOTE_D4, NOTE_DS4, NOTE_D4, NOTE_CS4, NOTE_B3, NOTE_CS4,
  NOTE_D4, NOTE_B3, NOTE_CS4, NOTE_DS4, NOTE_FS4, NOTE_CS4, NOTE_D4, NOTE_CS4, NOTE_B3, NOTE_CS4, NOTE_B3, NOTE_CS4,
  NOTE_FS4, NOTE_GS4, NOTE_D4, NOTE_DS4, NOTE_FS2, NOTE_CS4, NOTE_D4, NOTE_CS4, NOTE_B3, NOTE_B3, NOTE_CS4,
  NOTE_D4, NOTE_D4, NOTE_CS4, NOTE_B3, NOTE_CS4, NOTE_DS4, NOTE_FS4, NOTE_GS4, NOTE_DS4, NOTE_FS4, NOTE_CS4, NOTE_DS4, NOTE_B3, NOTE_CS4, NOTE_B3,
  NOTE_DS4, NOTE_FS4, NOTE_GS4, NOTE_DS4, NOTE_FS4, NOTE_CS4, NOTE_DS4, NOTE_B3, NOTE_D4, NOTE_DS4, NOTE_D4, NOTE_CS4, NOTE_B3, NOTE_CS4,
  NOTE_D4, NOTE_B3, NOTE_CS4, NOTE_DS4, NOTE_FS4, NOTE_CS4, NOTE_D4, NOTE_CS4, NOTE_B3, NOTE_CS4, NOTE_B3, NOTE_B3,
  NOTE_B3, NOTE_FS3, NOTE_GS3, NOTE_B3, NOTE_FS3, NOTE_GS3, NOTE_B3, NOTE_CS4, NOTE_DS4, NOTE_B3, NOTE_E4, NOTE_DS4, NOTE_E4, NOTE_FS4,
  NOTE_B3, NOTE_B3, NOTE_FS3, NOTE_GS3, NOTE_B3, NOTE_FS3, NOTE_E4, NOTE_DS4, NOTE_CS4, NOTE_B3, NOTE_E3, NOTE_DS3, NOTE_E3, NOTE_FS3,
  NOTE_B3, NOTE_FS3, NOTE_GS3, NOTE_B3, NOTE_FS3, NOTE_GS3, NOTE_B3, NOTE_B3, NOTE_CS4, NOTE_DS4, NOTE_B3, NOTE_FS3, NOTE_GS3, NOTE_FS3,
  NOTE_B3, NOTE_B3, NOTE_AS3, NOTE_B3, NOTE_FS3, NOTE_GS3, NOTE_B3, NOTE_E4, NOTE_DS4, NOTE_E4, NOTE_FS4, NOTE_B3, NOTE_AS3,
  NOTE_B3, NOTE_FS3, NOTE_GS3, NOTE_B3, NOTE_FS3, NOTE_GS3, NOTE_B3, NOTE_CS4, NOTE_DS4, NOTE_B3, NOTE_E4, NOTE_DS4, NOTE_E4, NOTE_FS4,
  NOTE_B3, NOTE_B3, NOTE_FS3, NOTE_GS3, NOTE_B3, NOTE_FS3, NOTE_E4, NOTE_DS4, NOTE_CS4, NOTE_B3, NOTE_E3, NOTE_DS3, NOTE_E3, NOTE_FS3,
  NOTE_B3, NOTE_FS3, NOTE_GS3, NOTE_B3, NOTE_FS3, NOTE_GS3, NOTE_B3, NOTE_B3, NOTE_CS4, NOTE_DS4, NOTE_B3, NOTE_FS3, NOTE_GS3, NOTE_FS3,
  NOTE_B3, NOTE_B3, NOTE_AS3, NOTE_B3, NOTE_FS3, NOTE_GS3, NOTE_B3, NOTE_E4, NOTE_DS4, NOTE_E4, NOTE_FS4, NOTE_B3, NOTE_CS4,
  NOTE_FS4, NOTE_GS4, NOTE_D4, NOTE_DS4, NOTE_FS2, NOTE_CS4, NOTE_D4, NOTE_CS4, NOTE_B3, NOTE_B3, NOTE_CS4,
  NOTE_D4, NOTE_D4, NOTE_CS4, NOTE_B3, NOTE_CS4, NOTE_DS4, NOTE_FS4, NOTE_GS4, NOTE_DS4, NOTE_FS4, NOTE_CS4, NOTE_DS4, NOTE_B3, NOTE_CS4, NOTE_B3,
  NOTE_DS4, NOTE_FS4, NOTE_GS4, NOTE_DS4, NOTE_FS4, NOTE_CS4, NOTE_DS4, NOTE_B3, NOTE_D4, NOTE_DS4, NOTE_D4, NOTE_CS4, NOTE_B3, NOTE_CS4,
  NOTE_D4, NOTE_B3, NOTE_CS4, NOTE_DS4, NOTE_FS4, NOTE_CS4, NOTE_D4, NOTE_CS4, NOTE_B3, NOTE_CS4, NOTE_B3, NOTE_CS4,
  NOTE_FS4, NOTE_GS4, NOTE_D4, NOTE_DS4, NOTE_FS2, NOTE_CS4, NOTE_D4, NOTE_CS4, NOTE_B3, NOTE_B3, NOTE_CS4,
  NOTE_D4, NOTE_D4, NOTE_CS4, NOTE_B3, NOTE_CS4, NOTE_DS4, NOTE_FS4, NOTE_GS4, NOTE_DS4, NOTE_FS4, NOTE_CS4, NOTE_DS4, NOTE_B3, NOTE_CS4, NOTE_B3,
  NOTE_DS4, NOTE_FS4, NOTE_GS4, NOTE_DS4, NOTE_FS4, NOTE_CS4, NOTE_DS4, NOTE_B3, NOTE_D4, NOTE_DS4, NOTE_D4, NOTE_CS4, NOTE_B3, NOTE_CS4,
  NOTE_D4, NOTE_B3, NOTE_CS4, NOTE_DS4, NOTE_FS4, NOTE_CS4, NOTE_D4, NOTE_CS4, NOTE_B3, NOTE_CS4, NOTE_B3, NOTE_B3,
  NOTE_B3, NOTE_FS3, NOTE_GS3, NOTE_B3, NOTE_FS3, NOTE_GS3, NOTE_B3, NOTE_CS4, NOTE_DS4, NOTE_B3, NOTE_E4, NOTE_DS4, NOTE_E4, NOTE_FS4,
  NOTE_B3, NOTE_B3, NOTE_FS3, NOTE_GS3, NOTE_B3, NOTE_FS3, NOTE_E4, NOTE_DS4, NOTE_CS4, NOTE_B3, NOTE_E3, NOTE_DS3, NOTE_E3, NOTE_FS3,
  NOTE_B3, NOTE_FS3, NOTE_GS3, NOTE_B3, NOTE_FS3, NOTE_GS3, NOTE_B3, NOTE_B3, NOTE_CS4, NOTE_DS4, NOTE_B3, NOTE_FS3, NOTE_GS3, NOTE_FS3,
  NOTE_B3, NOTE_B3, NOTE_AS3, NOTE_B3, NOTE_FS3, NOTE_GS3, NOTE_B3, NOTE_E4, NOTE_DS4, NOTE_E4, NOTE_FS4, NOTE_B3, NOTE_AS3,
  NOTE_B3, NOTE_FS3, NOTE_GS3, NOTE_B3, NOTE_FS3, NOTE_GS3, NOTE_B3, NOTE_CS4, NOTE_DS4, NOTE_B3, NOTE_E4, NOTE_DS4, NOTE_E4, NOTE_FS4,
  NOTE_B3, NOTE_B3, NOTE_FS3, NOTE_GS3, NOTE_B3, NOTE_FS3, NOTE_E4, NOTE_DS4, NOTE_CS4, NOTE_B3, NOTE_E3, NOTE_DS3, NOTE_E3, NOTE_FS3,
  NOTE_B3, NOTE_FS3, NOTE_GS3, NOTE_B3, NOTE_FS3, NOTE_GS3, NOTE_B3, NOTE_B3, NOTE_CS4, NOTE_DS4, NOTE_B3, NOTE_FS3, NOTE_GS3, NOTE_FS3,
  NOTE_B3, NOTE_B3, NOTE_AS3, NOTE_B3, NOTE_FS3, NOTE_GS3, NOTE_B3, NOTE_E4, NOTE_DS4, NOTE_E4, NOTE_FS4, NOTE_B3, NOTE_CS4
};

int noteDurations2[] =
{
  16, 16, 16, 16, 16, 16, 16, 16, 16, 16, 16, 16, 16, 16, 16, 16,
  16, 16, 16, 16, 16, 16, 8, 16, 16, 16, 16, 16, 16, 16, 16,
  8, 8, 16, 16, 16, 16, 16, 16, 8, 8, 8,
  8, 16, 16, 16, 16, 16, 16, 16, 16, 16, 16, 16, 16, 16, 16,
  8, 8, 16, 16, 16, 16, 16, 16, 16, 16, 16, 16, 16, 16,
  8, 16, 16, 16, 16, 16, 16, 16, 16, 8, 8, 8,
  8, 8, 16, 16, 16, 16, 16, 16, 8, 8, 8,
  8, 16, 16, 16, 16, 16, 16, 16, 16, 16, 16, 16, 16, 16, 16,
  8, 8, 16, 16, 16, 16, 16, 16, 16, 16, 16, 16, 16, 16,
  8, 16, 16, 16, 16, 16, 16, 16, 16, 8, 8, 8,
  8, 16, 16, 8, 16, 16, 16, 16, 16, 16, 16, 16, 16, 16,
  8, 8, 16, 16, 16, 16, 16, 16, 16, 16, 16, 16, 16, 16,
  8, 16, 16, 8, 16, 16, 16, 16, 16, 16, 16, 16, 16, 16,
  8, 16, 16, 16, 16, 16, 16, 16, 16, 16, 16, 8, 8,
  8, 16, 16, 8, 16, 16, 16, 16, 16, 16, 16, 16, 16, 16,
  8, 8, 16, 16, 16, 16, 16, 16, 16, 16, 16, 16, 16, 16,
  8, 16, 16, 8, 16, 16, 16, 16, 16, 16, 16, 16, 16, 16,
  8, 16, 16, 16, 16, 16, 16, 16, 16, 16, 16, 8, 8,
  8, 8, 16, 16, 16, 16, 16, 16, 8, 8, 8,
  8, 16, 16, 16, 16, 16, 16, 16, 16, 16, 16, 16, 16, 16, 16,
  8, 8, 16, 16, 16, 16, 16, 16, 16, 16, 16, 16, 16, 16,
  8, 16, 16, 16, 16, 16, 16, 16, 16, 8, 8, 8,
  8, 8, 16, 16, 16, 16, 16, 16, 8, 8, 8,
  8, 16, 16, 16, 16, 16, 16, 16, 16, 16, 16, 16, 16, 16, 16,
  8, 8, 16, 16, 16, 16, 16, 16, 16, 16, 16, 16, 16, 16,
  8, 16, 16, 16, 16, 16, 16, 16, 16, 8, 8, 8,
  8, 16, 16, 8, 16, 16, 16, 16, 16, 16, 16, 16, 16, 16,
  8, 8, 16, 16, 16, 16, 16, 16, 16, 16, 16, 16, 16, 16,
  8, 16, 16, 8, 16, 16, 16, 16, 16, 16, 16, 16, 16, 16,
  8, 16, 16, 16, 16, 16, 16, 16, 16, 16, 16, 8, 8,
  8, 16, 16, 8, 16, 16, 16, 16, 16, 16, 16, 16, 16, 16,
  8, 8, 16, 16, 16, 16, 16, 16, 16, 16, 16, 16, 16, 16,
  8, 16, 16, 8, 16, 16, 16, 16, 16, 16, 16, 16, 16, 16,
  8, 16, 16, 16, 16, 16, 16, 16, 16, 16, 16, 8, 8
};

void melodyNyan(int buzzer, int button, int led)
{
  melody(buzzer,
         button,
         led,
         melody2,
         noteDurations2,
         sizeof(melody2) / sizeof(int)
         );
}

void melodyKeyboardCat(int buzzer, int button, int led)
{
  melody(buzzer,
         button,
         led,
         melody1,
         noteDurations1,
         sizeof(melody1) / sizeof(int)
         );
}
